<svg xmlns="http://www.w3.org/2000/svg" xmlns:xlink="http://www.w3.org/1999/xlink" width="210" viewBox="0 0 210 45" height="45" version="1.0"><defs><g id="c"><path d="M 14.03125 -3.390625 L 14.03125 0 L 1.546875 0 L 1.546875 -15.546875 L 13.75 -15.546875 L 13.75 -12.140625 L 5.90625 -12.140625 L 5.90625 -9.53125 L 12.8125 -9.53125 L 12.8125 -6.234375 L 5.90625 -6.234375 L 5.90625 -3.390625 Z M 14.03125 -3.390625"/></g><g id="d"><path d="M 9.296875 0.3125 C 7.671875 0.3125 6.207031 -0.03125 4.90625 -0.71875 C 3.613281 -1.40625 2.597656 -2.363281 1.859375 -3.59375 C 1.117188 -4.820312 0.75 -6.210938 0.75 -7.765625 C 0.75 -9.328125 1.117188 -10.71875 1.859375 -11.9375 C 2.597656 -13.164062 3.613281 -14.125 4.90625 -14.8125 C 6.207031 -15.507812 7.671875 -15.859375 9.296875 -15.859375 C 10.722656 -15.859375 12.003906 -15.601562 13.140625 -15.09375 C 14.285156 -14.59375 15.234375 -13.867188 15.984375 -12.921875 L 13.1875 -10.390625 C 12.175781 -11.609375 10.957031 -12.21875 9.53125 -12.21875 C 8.6875 -12.21875 7.929688 -12.03125 7.265625 -11.65625 C 6.609375 -11.289062 6.097656 -10.769531 5.734375 -10.09375 C 5.378906 -9.414062 5.203125 -8.640625 5.203125 -7.765625 C 5.203125 -6.898438 5.378906 -6.128906 5.734375 -5.453125 C 6.097656 -4.773438 6.609375 -4.25 7.265625 -3.875 C 7.929688 -3.507812 8.6875 -3.328125 9.53125 -3.328125 C 10.957031 -3.328125 12.175781 -3.9375 13.1875 -5.15625 L 15.984375 -2.625 C 15.234375 -1.675781 14.285156 -0.945312 13.140625 -0.4375 C 12.003906 0.0625 10.722656 0.3125 9.296875 0.3125 Z M 9.296875 0.3125"/></g><g id="e"><path d="M 9.390625 0.3125 C 7.742188 0.3125 6.265625 -0.0351562 4.953125 -0.734375 C 3.648438 -1.429688 2.625 -2.394531 1.875 -3.625 C 1.125 -4.851562 0.75 -6.234375 0.75 -7.765625 C 0.75 -9.304688 1.125 -10.691406 1.875 -11.921875 C 2.625 -13.148438 3.648438 -14.113281 4.953125 -14.8125 C 6.265625 -15.507812 7.742188 -15.859375 9.390625 -15.859375 C 11.035156 -15.859375 12.507812 -15.507812 13.8125 -14.8125 C 15.125 -14.113281 16.15625 -13.148438 16.90625 -11.921875 C 17.65625 -10.691406 18.03125 -9.304688 18.03125 -7.765625 C 18.03125 -6.234375 17.65625 -4.851562 16.90625 -3.625 C 16.15625 -2.394531 15.125 -1.429688 13.8125 -0.734375 C 12.507812 -0.0351562 11.035156 0.3125 9.390625 0.3125 Z M 9.390625 -3.328125 C 10.171875 -3.328125 10.878906 -3.507812 11.515625 -3.875 C 12.160156 -4.25 12.664062 -4.773438 13.03125 -5.453125 C 13.40625 -6.128906 13.59375 -6.898438 13.59375 -7.765625 C 13.59375 -8.640625 13.40625 -9.414062 13.03125 -10.09375 C 12.664062 -10.769531 12.160156 -11.289062 11.515625 -11.65625 C 10.878906 -12.03125 10.171875 -12.21875 9.390625 -12.21875 C 8.609375 -12.21875 7.898438 -12.03125 7.265625 -11.65625 C 6.628906 -11.289062 6.125 -10.769531 5.75 -10.09375 C 5.382812 -9.414062 5.203125 -8.640625 5.203125 -7.765625 C 5.203125 -6.898438 5.382812 -6.128906 5.75 -5.453125 C 6.125 -4.773438 6.628906 -4.25 7.265625 -3.875 C 7.898438 -3.507812 8.609375 -3.328125 9.390625 -3.328125 Z M 9.390625 -3.328125"/></g><g id="g"><path d="M 5.953125 -12.140625 L 5.953125 -8.71875 L 12.8125 -8.71875 L 12.8125 -5.328125 L 5.953125 -5.328125 L 5.953125 0 L 1.546875 0 L 1.546875 -15.546875 L 13.75 -15.546875 L 13.75 -12.140625 Z M 5.953125 -12.140625"/></g><g id="h"><path d="M 11.96875 -3.015625 L 5.390625 -3.015625 L 4.171875 0 L -0.3125 0 L 6.546875 -15.546875 L 10.875 -15.546875 L 17.765625 0 L 13.1875 0 Z M 10.6875 -6.265625 L 8.6875 -11.234375 L 6.6875 -6.265625 Z M 10.6875 -6.265625"/></g><g id="i"><path d="M 8.34375 -4.125 L 5.953125 -4.125 L 5.953125 0 L 1.546875 0 L 1.546875 -15.546875 L 8.65625 -15.546875 C 10.0625 -15.546875 11.28125 -15.3125 12.3125 -14.84375 C 13.351562 -14.375 14.15625 -13.707031 14.71875 -12.84375 C 15.28125 -11.976562 15.5625 -10.960938 15.5625 -9.796875 C 15.5625 -8.671875 15.296875 -7.6875 14.765625 -6.84375 C 14.242188 -6.007812 13.492188 -5.359375 12.515625 -4.890625 L 15.875 0 L 11.171875 0 Z M 11.125 -9.796875 C 11.125 -10.515625 10.894531 -11.070312 10.4375 -11.46875 C 9.976562 -11.875 9.296875 -12.078125 8.390625 -12.078125 L 5.953125 -12.078125 L 5.953125 -7.53125 L 8.390625 -7.53125 C 9.296875 -7.53125 9.976562 -7.722656 10.4375 -8.109375 C 10.894531 -8.503906 11.125 -9.066406 11.125 -9.796875 Z M 11.125 -9.796875"/></g><g id="j"><path d="M 15.59375 0 L 15.546875 -8.234375 L 11.546875 -1.53125 L 9.59375 -1.53125 L 5.625 -8.015625 L 5.625 0 L 1.546875 0 L 1.546875 -15.546875 L 5.171875 -15.546875 L 10.640625 -6.578125 L 15.96875 -15.546875 L 19.578125 -15.546875 L 19.625 0 Z M 15.59375 0"/></g><g id="k"><path d="M 8.25 -2 L 8.25 0 L 0.921875 0 L 0.921875 -9.140625 L 8.078125 -9.140625 L 8.078125 -7.140625 L 3.46875 -7.140625 L 3.46875 -5.609375 L 7.53125 -5.609375 L 7.53125 -3.671875 L 3.46875 -3.671875 L 3.46875 -2 Z M 8.25 -2"/></g><g id="l"><path d="M 11.078125 1.0625 C 10.773438 1.4375 10.398438 1.71875 9.953125 1.90625 C 9.515625 2.101562 9.035156 2.203125 8.515625 2.203125 C 8.015625 2.203125 7.554688 2.132812 7.140625 2 C 6.734375 1.875 6.320312 1.660156 5.90625 1.359375 C 5.5 1.066406 5.035156 0.648438 4.515625 0.109375 C 3.722656 -0.0234375 3.015625 -0.304688 2.390625 -0.734375 C 1.773438 -1.171875 1.296875 -1.722656 0.953125 -2.390625 C 0.609375 -3.054688 0.4375 -3.785156 0.4375 -4.578125 C 0.4375 -5.484375 0.65625 -6.296875 1.09375 -7.015625 C 1.539062 -7.734375 2.148438 -8.296875 2.921875 -8.703125 C 3.691406 -9.117188 4.5625 -9.328125 5.53125 -9.328125 C 6.488281 -9.328125 7.351562 -9.117188 8.125 -8.703125 C 8.894531 -8.296875 9.5 -7.734375 9.9375 -7.015625 C 10.382812 -6.296875 10.609375 -5.484375 10.609375 -4.578125 C 10.609375 -3.546875 10.328125 -2.632812 9.765625 -1.84375 C 9.203125 -1.0625 8.445312 -0.5 7.5 -0.15625 C 7.675781 0.03125 7.847656 0.160156 8.015625 0.234375 C 8.179688 0.316406 8.363281 0.359375 8.5625 0.359375 C 9.082031 0.359375 9.546875 0.144531 9.953125 -0.28125 Z M 3.0625 -4.578125 C 3.0625 -4.054688 3.164062 -3.597656 3.375 -3.203125 C 3.59375 -2.804688 3.890625 -2.5 4.265625 -2.28125 C 4.640625 -2.0625 5.0625 -1.953125 5.53125 -1.953125 C 5.988281 -1.953125 6.40625 -2.0625 6.78125 -2.28125 C 7.15625 -2.5 7.453125 -2.804688 7.671875 -3.203125 C 7.890625 -3.597656 8 -4.054688 8 -4.578125 C 8 -5.085938 7.890625 -5.539062 7.671875 -5.9375 C 7.453125 -6.332031 7.15625 -6.640625 6.78125 -6.859375 C 6.40625 -7.078125 5.988281 -7.1875 5.53125 -7.1875 C 5.0625 -7.1875 4.640625 -7.078125 4.265625 -6.859375 C 3.890625 -6.640625 3.59375 -6.332031 3.375 -5.9375 C 3.164062 -5.539062 3.0625 -5.085938 3.0625 -4.578125 Z M 3.0625 -4.578125"/></g><g id="m"><path d="M 5.140625 0.1875 C 3.773438 0.1875 2.71875 -0.179688 1.96875 -0.921875 C 1.21875 -1.660156 0.84375 -2.710938 0.84375 -4.078125 L 0.84375 -9.140625 L 3.421875 -9.140625 L 3.421875 -4.15625 C 3.421875 -2.6875 4 -1.953125 5.15625 -1.953125 C 6.3125 -1.953125 6.890625 -2.6875 6.890625 -4.15625 L 6.890625 -9.140625 L 9.4375 -9.140625 L 9.4375 -4.078125 C 9.4375 -2.710938 9.054688 -1.660156 8.296875 -0.921875 C 7.546875 -0.179688 6.492188 0.1875 5.140625 0.1875 Z M 5.140625 0.1875"/></g><g id="n"><path d="M 0.921875 -9.140625 L 3.5 -9.140625 L 3.5 0 L 0.921875 0 Z M 0.921875 -9.140625"/></g><g id="o"><path d="M 5.09375 -9.140625 C 5.914062 -9.140625 6.628906 -9.003906 7.234375 -8.734375 C 7.847656 -8.460938 8.320312 -8.070312 8.65625 -7.5625 C 8.988281 -7.050781 9.15625 -6.453125 9.15625 -5.765625 C 9.15625 -5.078125 8.988281 -4.476562 8.65625 -3.96875 C 8.320312 -3.46875 7.847656 -3.078125 7.234375 -2.796875 C 6.628906 -2.523438 5.914062 -2.390625 5.09375 -2.390625 L 3.5 -2.390625 L 3.5 0 L 0.921875 0 L 0.921875 -9.140625 Z M 4.9375 -4.421875 C 5.46875 -4.421875 5.867188 -4.535156 6.140625 -4.765625 C 6.410156 -5.003906 6.546875 -5.335938 6.546875 -5.765625 C 6.546875 -6.191406 6.410156 -6.519531 6.140625 -6.75 C 5.867188 -6.988281 5.46875 -7.109375 4.9375 -7.109375 L 3.5 -7.109375 L 3.5 -4.421875 Z M 4.9375 -4.421875"/></g><g id="p"><path d="M 9.171875 0 L 9.140625 -4.84375 L 6.796875 -0.90625 L 5.640625 -0.90625 L 3.3125 -4.71875 L 3.3125 0 L 0.921875 0 L 0.921875 -9.140625 L 3.046875 -9.140625 L 6.25 -3.859375 L 9.390625 -9.140625 L 11.515625 -9.140625 L 11.546875 0 Z M 9.171875 0"/></g><g id="q"><path d="M 9.609375 -9.140625 L 9.609375 0 L 7.484375 0 L 3.453125 -4.875 L 3.453125 0 L 0.921875 0 L 0.921875 -9.140625 L 3.046875 -9.140625 L 7.078125 -4.265625 L 7.078125 -9.140625 Z M 9.609375 -9.140625"/></g><g id="r"><path d="M 2.859375 -7.09375 L 0.046875 -7.09375 L 0.046875 -9.140625 L 8.25 -9.140625 L 8.25 -7.09375 L 5.453125 -7.09375 L 5.453125 0 L 2.859375 0 Z M 2.859375 -7.09375"/></g><clipPath id="a"><path d="M 11 5 L 40.503906 5 L 40.503906 44.207031 L 11 44.207031 Z M 11 5"/></clipPath><clipPath id="b"><path d="M 1.503906 0.707031 L 30 0.707031 L 30 41 L 1.503906 41 Z M 1.503906 0.707031"/></clipPath></defs><g clip-path="url(#a)"><path fill="#4D6066" d="M 29.921875 5.003906 L 30.746094 5.480469 L 37.648438 9.488281 C 38.527344 10 39.222656 10.699219 39.730469 11.582031 C 40.238281 12.46875 40.492188 13.421875 40.492188 14.441406 L 40.492188 30.472656 C 40.492188 31.496094 40.238281 32.449219 39.730469 33.332031 C 39.222656 34.21875 38.527344 34.914062 37.648438 35.425781 L 23.84375 43.441406 C 22.964844 43.953125 22.015625 44.207031 21 44.207031 C 19.984375 44.207031 19.039062 43.953125 18.15625 43.441406 L 11.59375 39.628906 L 14.257812 37.796875 C 21.804688 41.117188 40.25 30.519531 29.921875 5.003906 Z M 29.921875 5.003906" fill-rule="evenodd"/></g><path fill="#405159" d="M 14.179688 41.125 L 11.601562 39.628906 L 14.265625 37.796875 C 21.511719 40.984375 38.789062 31.34375 31.03125 7.996094 C 39.503906 30.972656 24.398438 40.722656 14.179688 41.125 Z M 14.179688 41.125" fill-rule="evenodd"/><g clip-path="url(#b)"><path fill="#008037" d="M 23.84375 1.472656 L 29.683594 4.867188 C 24.765625 18.542969 -2.207031 17.308594 9.445312 35.296875 C 15.253906 31.871094 20.777344 27.863281 24.257812 19.734375 C 24.066406 27.300781 17.675781 33.644531 10.230469 38.527344 L 10.058594 38.636719 L 10.003906 38.675781 L 9.980469 38.691406 C 8.855469 39.421875 7.710938 40.117188 6.558594 40.777344 L 7.761719 37.402344 L 4.359375 35.425781 C 3.480469 34.914062 2.785156 34.21875 2.277344 33.332031 C 1.769531 32.449219 1.515625 31.496094 1.515625 30.472656 L 1.515625 14.441406 C 1.515625 13.421875 1.769531 12.46875 2.277344 11.582031 C 2.785156 10.699219 3.480469 10 4.359375 9.488281 L 11.261719 5.480469 L 18.160156 1.472656 C 19.039062 0.964844 19.988281 0.707031 21.003906 0.707031 C 22.015625 0.707031 22.964844 0.964844 23.84375 1.472656 Z M 23.84375 1.472656" fill-rule="evenodd"/></g><g fill="#008037"><use x="46.255" y="22.359" xmlns:xlink="http://www.w3.org/1999/xlink" xlink:href="#c" xlink:type="simple" xlink:actuate="onLoad" xlink:show="embed"/></g><g fill="#008037"><use x="66.324" y="22.359" xmlns:xlink="http://www.w3.org/1999/xlink" xlink:href="#d" xlink:type="simple" xlink:actuate="onLoad" xlink:show="embed"/></g><g fill="#008037"><use x="87.858" y="22.359" xmlns:xlink="http://www.w3.org/1999/xlink" xlink:href="#e" xlink:type="simple" xlink:actuate="onLoad" xlink:show="embed"/></g><g fill="#008037"><use x="111.789" y="22.359" xmlns:xlink="http://www.w3.org/1999/xlink" xlink:href="#f" xlink:type="simple" xlink:actuate="onLoad" xlink:show="embed"/></g><g fill="#008037"><use x="123.402" y="22.359" xmlns:xlink="http://www.w3.org/1999/xlink" xlink:href="#g" xlink:type="simple" xlink:actuate="onLoad" xlink:show="embed"/></g><g fill="#008037"><use x="142.805" y="22.359" xmlns:xlink="http://www.w3.org/1999/xlink" xlink:href="#h" xlink:type="simple" xlink:actuate="onLoad" xlink:show="embed"/></g><g fill="#008037"><use x="165.404" y="22.359" xmlns:xlink="http://www.w3.org/1999/xlink" xlink:href="#i" xlink:type="simple" xlink:actuate="onLoad" xlink:show="embed"/></g><g fill="#008037"><use x="186.983" y="22.359" xmlns:xlink="http://www.w3.org/1999/xlink" xlink:href="#j" xlink:type="simple" xlink:actuate="onLoad" xlink:show="embed"/></g><g fill="#405159"><use x="54.752" y="39.914" xmlns:xlink="http://www.w3.org/1999/xlink" xlink:href="#k" xlink:type="simple" xlink:actuate="onLoad" xlink:show="embed"/></g><g fill="#405159"><use x="71.118" y="39.914" xmlns:xlink="http://www.w3.org/1999/xlink" xlink:href="#l" xlink:type="simple" xlink:actuate="onLoad" xlink:show="embed"/></g><g fill="#405159"><use x="89.758" y="39.914" xmlns:xlink="http://www.w3.org/1999/xlink" xlink:href="#m" xlink:type="simple" xlink:actuate="onLoad" xlink:show="embed"/></g><g fill="#405159"><use x="107.613" y="39.914" xmlns:xlink="http://www.w3.org/1999/xlink" xlink:href="#n" xlink:type="simple" xlink:actuate="onLoad" xlink:show="embed"/></g><g fill="#405159"><use x="119.627" y="39.914" xmlns:xlink="http://www.w3.org/1999/xlink" xlink:href="#o" xlink:type="simple" xlink:actuate="onLoad" xlink:show="embed"/></g><g fill="#405159"><use x="136.843" y="39.914" xmlns:xlink="http://www.w3.org/1999/xlink" xlink:href="#p" xlink:type="simple" xlink:actuate="onLoad" xlink:show="embed"/></g><g fill="#405159"><use x="156.894" y="39.914" xmlns:xlink="http://www.w3.org/1999/xlink" xlink:href="#k" xlink:type="simple" xlink:actuate="onLoad" xlink:show="embed"/></g><g fill="#405159"><use x="173.26" y="39.914" xmlns:xlink="http://www.w3.org/1999/xlink" xlink:href="#q" xlink:type="simple" xlink:actuate="onLoad" xlink:show="embed"/></g><g fill="#405159"><use x="191.376" y="39.914" xmlns:xlink="http://www.w3.org/1999/xlink" xlink:href="#r" xlink:type="simple" xlink:actuate="onLoad" xlink:show="embed"/></g></svg>