<?xml version="1.0" encoding="UTF-8"?><svg xmlns="http://www.w3.org/2000/svg" xmlns:xlink="http://www.w3.org/1999/xlink" width="224.87999" zoomAndPan="magnify" viewBox="0 0 224.87999 225" height="225" preserveAspectRatio="xMidYMid meet" version="1.0"><defs><clipPath id="clip-0"><path d="M 66 27 L 208 27 L 208 218.65625 L 66 218.65625 Z M 66 27 " clip-rule="nonzero"/></clipPath><clipPath id="clip-1"><path d="M 16.867188 6.519531 L 155 6.519531 L 155 202 L 16.867188 202 Z M 16.867188 6.519531 " clip-rule="nonzero"/></clipPath></defs><g clip-path="url(#clip-0)"><path fill="rgb(100%, 100%, 100%)" d="M 156.148438 27.46875 L 160.195312 29.804688 L 194.019531 49.34375 C 195.074219 49.953125 196.082031 50.628906 197.050781 51.371094 C 198.015625 52.113281 198.929688 52.917969 199.789062 53.777344 C 200.652344 54.640625 201.453125 55.554688 202.191406 56.523438 C 202.933594 57.488281 203.609375 58.5 204.21875 59.554688 C 204.828125 60.613281 205.363281 61.703125 205.828125 62.828125 C 206.296875 63.953125 206.6875 65.105469 207 66.28125 C 207.316406 67.460938 207.554688 68.652344 207.710938 69.859375 C 207.871094 71.070312 207.949219 72.28125 207.949219 73.5 L 207.949219 151.679688 C 207.949219 152.898438 207.871094 154.109375 207.714844 155.320312 C 207.554688 156.527344 207.316406 157.71875 207.003906 158.898438 C 206.6875 160.074219 206.296875 161.226562 205.832031 162.351562 C 205.367188 163.476562 204.828125 164.570312 204.21875 165.625 C 203.609375 166.679688 202.9375 167.691406 202.195312 168.660156 C 201.453125 169.625 200.652344 170.539062 199.789062 171.402344 C 198.929688 172.261719 198.015625 173.066406 197.050781 173.808594 C 196.085938 174.546875 195.074219 175.222656 194.019531 175.832031 L 160.195312 195.378906 L 126.359375 214.925781 C 125.304688 215.535156 124.214844 216.070312 123.089844 216.539062 C 121.964844 217.003906 120.8125 217.394531 119.636719 217.710938 C 118.460938 218.027344 117.269531 218.261719 116.0625 218.421875 C 114.855469 218.582031 113.640625 218.660156 112.421875 218.660156 C 111.207031 218.660156 109.992188 218.582031 108.785156 218.421875 C 107.578125 218.261719 106.386719 218.027344 105.210938 217.710938 C 104.035156 217.394531 102.882812 217.003906 101.757812 216.539062 C 100.632812 216.070312 99.542969 215.535156 98.488281 214.925781 L 66.3125 196.328125 L 79.378906 187.390625 C 116.367188 203.585938 206.765625 151.902344 156.148438 27.46875 Z M 156.148438 27.46875 " fill-opacity="1" fill-rule="evenodd"/></g><path fill="rgb(85.099792%, 85.099792%, 85.099792%)" d="M 78.992188 203.628906 L 66.355469 196.328125 L 79.421875 187.390625 C 114.917969 202.9375 199.609375 155.929688 161.582031 42.070312 C 203.121094 154.109375 129.082031 201.660156 78.992188 203.628906 Z M 78.992188 203.628906 " fill-opacity="1" fill-rule="evenodd"/><g clip-path="url(#clip-1)"><path fill="rgb(55.288696%, 77.648926%, 24.708557%)" d="M 126.359375 10.257812 L 154.984375 26.800781 C 130.871094 93.5 -1.324219 87.472656 55.789062 175.195312 C 84.257812 158.5 111.320312 138.949219 128.390625 99.3125 C 127.445312 136.207031 96.121094 167.140625 59.628906 190.953125 L 58.796875 191.5 L 58.523438 191.679688 L 58.410156 191.753906 C 52.90625 195.3125 47.285156 198.707031 41.644531 201.933594 L 47.535156 185.46875 L 30.859375 175.832031 C 29.804688 175.222656 28.796875 174.546875 27.832031 173.804688 C 26.863281 173.066406 25.949219 172.261719 25.089844 171.402344 C 24.230469 170.539062 23.429688 169.625 22.6875 168.65625 C 21.945312 167.691406 21.269531 166.679688 20.660156 165.625 C 20.054688 164.570312 19.515625 163.476562 19.050781 162.351562 C 18.585938 161.226562 18.195312 160.074219 17.878906 158.898438 C 17.5625 157.71875 17.328125 156.527344 17.167969 155.320312 C 17.007812 154.109375 16.929688 152.898438 16.929688 151.679688 L 16.929688 73.5 C 16.929688 72.28125 17.007812 71.070312 17.167969 69.859375 C 17.328125 68.652344 17.566406 67.460938 17.878906 66.28125 C 18.195312 65.105469 18.585938 63.953125 19.050781 62.828125 C 19.519531 61.703125 20.054688 60.613281 20.664062 59.554688 C 21.273438 58.5 21.949219 57.488281 22.6875 56.523438 C 23.429688 55.554688 24.230469 54.640625 25.089844 53.777344 C 25.953125 52.917969 26.867188 52.113281 27.832031 51.371094 C 28.796875 50.628906 29.808594 49.953125 30.859375 49.34375 L 64.6875 29.804688 L 98.503906 10.257812 C 99.558594 9.648438 100.648438 9.113281 101.773438 8.644531 C 102.898438 8.179688 104.046875 7.789062 105.222656 7.472656 C 106.398438 7.160156 107.589844 6.921875 108.796875 6.761719 C 110.003906 6.601562 111.214844 6.523438 112.433594 6.523438 C 113.648438 6.523438 114.859375 6.601562 116.066406 6.761719 C 117.273438 6.921875 118.464844 7.160156 119.640625 7.472656 C 120.816406 7.789062 121.964844 8.179688 123.089844 8.644531 C 124.214844 9.113281 125.304688 9.648438 126.359375 10.257812 Z M 126.359375 10.257812 " fill-opacity="1" fill-rule="evenodd"/></g></svg>