<svg xmlns="http://www.w3.org/2000/svg" xmlns:xlink="http://www.w3.org/1999/xlink" width="210" viewBox="0 0 210 45" height="45" version="1.0"><defs><g id="c"><path d="M 14.65625 -3.546875 L 14.65625 0 L 1.625 0 L 1.625 -16.234375 L 14.359375 -16.234375 L 14.359375 -12.6875 L 6.171875 -12.6875 L 6.171875 -9.953125 L 13.375 -9.953125 L 13.375 -6.515625 L 6.171875 -6.515625 L 6.171875 -3.546875 Z M 14.65625 -3.546875"/></g><g id="d"><path d="M 9.71875 0.328125 C 8.019531 0.328125 6.492188 -0.03125 5.140625 -0.75 C 3.785156 -1.46875 2.71875 -2.46875 1.9375 -3.75 C 1.164062 -5.039062 0.78125 -6.492188 0.78125 -8.109375 C 0.78125 -9.734375 1.164062 -11.1875 1.9375 -12.46875 C 2.71875 -13.757812 3.785156 -14.765625 5.140625 -15.484375 C 6.492188 -16.203125 8.019531 -16.5625 9.71875 -16.5625 C 11.195312 -16.5625 12.53125 -16.296875 13.71875 -15.765625 C 14.914062 -15.242188 15.90625 -14.488281 16.6875 -13.5 L 13.765625 -10.859375 C 12.722656 -12.117188 11.453125 -12.75 9.953125 -12.75 C 9.066406 -12.75 8.28125 -12.554688 7.59375 -12.171875 C 6.90625 -11.785156 6.367188 -11.238281 5.984375 -10.53125 C 5.609375 -9.832031 5.421875 -9.023438 5.421875 -8.109375 C 5.421875 -7.203125 5.609375 -6.394531 5.984375 -5.6875 C 6.367188 -4.988281 6.90625 -4.445312 7.59375 -4.0625 C 8.28125 -3.675781 9.066406 -3.484375 9.953125 -3.484375 C 11.453125 -3.484375 12.722656 -4.113281 13.765625 -5.375 L 16.6875 -2.734375 C 15.90625 -1.742188 14.914062 -0.984375 13.71875 -0.453125 C 12.53125 0.0664062 11.195312 0.328125 9.71875 0.328125 Z M 9.71875 0.328125"/></g><g id="e"><path d="M 9.8125 0.328125 C 8.09375 0.328125 6.546875 -0.0351562 5.171875 -0.765625 C 3.804688 -1.492188 2.734375 -2.5 1.953125 -3.78125 C 1.171875 -5.0625 0.78125 -6.503906 0.78125 -8.109375 C 0.78125 -9.722656 1.171875 -11.171875 1.953125 -12.453125 C 2.734375 -13.734375 3.804688 -14.738281 5.171875 -15.46875 C 6.546875 -16.195312 8.09375 -16.5625 9.8125 -16.5625 C 11.519531 -16.5625 13.054688 -16.195312 14.421875 -15.46875 C 15.796875 -14.738281 16.875 -13.734375 17.65625 -12.453125 C 18.4375 -11.171875 18.828125 -9.722656 18.828125 -8.109375 C 18.828125 -6.503906 18.4375 -5.0625 17.65625 -3.78125 C 16.875 -2.5 15.796875 -1.492188 14.421875 -0.765625 C 13.054688 -0.0351562 11.519531 0.328125 9.8125 0.328125 Z M 9.8125 -3.484375 C 10.625 -3.484375 11.363281 -3.675781 12.03125 -4.0625 C 12.695312 -4.445312 13.222656 -4.988281 13.609375 -5.6875 C 13.992188 -6.394531 14.1875 -7.203125 14.1875 -8.109375 C 14.1875 -9.023438 13.992188 -9.832031 13.609375 -10.53125 C 13.222656 -11.238281 12.695312 -11.785156 12.03125 -12.171875 C 11.363281 -12.554688 10.625 -12.75 9.8125 -12.75 C 8.988281 -12.75 8.242188 -12.554688 7.578125 -12.171875 C 6.910156 -11.785156 6.382812 -11.238281 6 -10.53125 C 5.613281 -9.832031 5.421875 -9.023438 5.421875 -8.109375 C 5.421875 -7.203125 5.613281 -6.394531 6 -5.6875 C 6.382812 -4.988281 6.910156 -4.445312 7.578125 -4.0625 C 8.242188 -3.675781 8.988281 -3.484375 9.8125 -3.484375 Z M 9.8125 -3.484375"/></g><g id="f"><path d="M 6.21875 -12.6875 L 6.21875 -9.109375 L 13.375 -9.109375 L 13.375 -5.5625 L 6.21875 -5.5625 L 6.21875 0 L 1.625 0 L 1.625 -16.234375 L 14.359375 -16.234375 L 14.359375 -12.6875 Z M 6.21875 -12.6875"/></g><g id="g"><path d="M 12.5 -3.15625 L 5.640625 -3.15625 L 4.359375 0 L -0.328125 0 L 6.84375 -16.234375 L 11.359375 -16.234375 L 18.546875 0 L 13.765625 0 Z M 11.15625 -6.53125 L 9.0625 -11.734375 L 6.984375 -6.53125 Z M 11.15625 -6.53125"/></g><g id="h"><path d="M 8.71875 -4.3125 L 6.21875 -4.3125 L 6.21875 0 L 1.625 0 L 1.625 -16.234375 L 9.046875 -16.234375 C 10.515625 -16.234375 11.785156 -15.988281 12.859375 -15.5 C 13.941406 -15.007812 14.773438 -14.3125 15.359375 -13.40625 C 15.953125 -12.507812 16.25 -11.445312 16.25 -10.21875 C 16.25 -9.050781 15.972656 -8.03125 15.421875 -7.15625 C 14.878906 -6.28125 14.097656 -5.59375 13.078125 -5.09375 L 16.578125 0 L 11.65625 0 Z M 11.609375 -10.21875 C 11.609375 -10.976562 11.367188 -11.566406 10.890625 -11.984375 C 10.410156 -12.398438 9.703125 -12.609375 8.765625 -12.609375 L 6.21875 -12.609375 L 6.21875 -7.859375 L 8.765625 -7.859375 C 9.703125 -7.859375 10.410156 -8.0625 10.890625 -8.46875 C 11.367188 -8.882812 11.609375 -9.46875 11.609375 -10.21875 Z M 11.609375 -10.21875"/></g><g id="i"><path d="M 16.28125 0 L 16.234375 -8.609375 L 12.0625 -1.59375 L 10.015625 -1.59375 L 5.859375 -8.375 L 5.859375 0 L 1.625 0 L 1.625 -16.234375 L 5.40625 -16.234375 L 11.109375 -6.859375 L 16.671875 -16.234375 L 20.453125 -16.234375 L 20.5 0 Z M 16.28125 0"/></g><g id="j"><path d="M 8.25 -2 L 8.25 0 L 0.921875 0 L 0.921875 -9.140625 L 8.078125 -9.140625 L 8.078125 -7.140625 L 3.46875 -7.140625 L 3.46875 -5.609375 L 7.53125 -5.609375 L 7.53125 -3.671875 L 3.46875 -3.671875 L 3.46875 -2 Z M 8.25 -2"/></g><g id="k"><path d="M 11.078125 1.0625 C 10.773438 1.4375 10.398438 1.71875 9.953125 1.90625 C 9.515625 2.101562 9.035156 2.203125 8.515625 2.203125 C 8.015625 2.203125 7.554688 2.132812 7.140625 2 C 6.734375 1.875 6.320312 1.660156 5.90625 1.359375 C 5.5 1.066406 5.035156 0.648438 4.515625 0.109375 C 3.722656 -0.0234375 3.015625 -0.304688 2.390625 -0.734375 C 1.773438 -1.171875 1.296875 -1.722656 0.953125 -2.390625 C 0.609375 -3.054688 0.4375 -3.785156 0.4375 -4.578125 C 0.4375 -5.484375 0.65625 -6.296875 1.09375 -7.015625 C 1.539062 -7.734375 2.148438 -8.296875 2.921875 -8.703125 C 3.691406 -9.117188 4.5625 -9.328125 5.53125 -9.328125 C 6.488281 -9.328125 7.351562 -9.117188 8.125 -8.703125 C 8.894531 -8.296875 9.5 -7.734375 9.9375 -7.015625 C 10.382812 -6.296875 10.609375 -5.484375 10.609375 -4.578125 C 10.609375 -3.546875 10.328125 -2.632812 9.765625 -1.84375 C 9.203125 -1.0625 8.445312 -0.5 7.5 -0.15625 C 7.675781 0.03125 7.847656 0.160156 8.015625 0.234375 C 8.179688 0.316406 8.363281 0.359375 8.5625 0.359375 C 9.082031 0.359375 9.546875 0.144531 9.953125 -0.28125 Z M 3.0625 -4.578125 C 3.0625 -4.054688 3.164062 -3.597656 3.375 -3.203125 C 3.59375 -2.804688 3.890625 -2.5 4.265625 -2.28125 C 4.640625 -2.0625 5.0625 -1.953125 5.53125 -1.953125 C 5.988281 -1.953125 6.40625 -2.0625 6.78125 -2.28125 C 7.15625 -2.5 7.453125 -2.804688 7.671875 -3.203125 C 7.890625 -3.597656 8 -4.054688 8 -4.578125 C 8 -5.085938 7.890625 -5.539062 7.671875 -5.9375 C 7.453125 -6.332031 7.15625 -6.640625 6.78125 -6.859375 C 6.40625 -7.078125 5.988281 -7.1875 5.53125 -7.1875 C 5.0625 -7.1875 4.640625 -7.078125 4.265625 -6.859375 C 3.890625 -6.640625 3.59375 -6.332031 3.375 -5.9375 C 3.164062 -5.539062 3.0625 -5.085938 3.0625 -4.578125 Z M 3.0625 -4.578125"/></g><g id="l"><path d="M 5.140625 0.1875 C 3.773438 0.1875 2.71875 -0.179688 1.96875 -0.921875 C 1.21875 -1.660156 0.84375 -2.710938 0.84375 -4.078125 L 0.84375 -9.140625 L 3.421875 -9.140625 L 3.421875 -4.15625 C 3.421875 -2.6875 4 -1.953125 5.15625 -1.953125 C 6.3125 -1.953125 6.890625 -2.6875 6.890625 -4.15625 L 6.890625 -9.140625 L 9.4375 -9.140625 L 9.4375 -4.078125 C 9.4375 -2.710938 9.054688 -1.660156 8.296875 -0.921875 C 7.546875 -0.179688 6.492188 0.1875 5.140625 0.1875 Z M 5.140625 0.1875"/></g><g id="m"><path d="M 0.921875 -9.140625 L 3.5 -9.140625 L 3.5 0 L 0.921875 0 Z M 0.921875 -9.140625"/></g><g id="n"><path d="M 5.09375 -9.140625 C 5.914062 -9.140625 6.628906 -9.003906 7.234375 -8.734375 C 7.847656 -8.460938 8.320312 -8.070312 8.65625 -7.5625 C 8.988281 -7.050781 9.15625 -6.453125 9.15625 -5.765625 C 9.15625 -5.078125 8.988281 -4.476562 8.65625 -3.96875 C 8.320312 -3.46875 7.847656 -3.078125 7.234375 -2.796875 C 6.628906 -2.523438 5.914062 -2.390625 5.09375 -2.390625 L 3.5 -2.390625 L 3.5 0 L 0.921875 0 L 0.921875 -9.140625 Z M 4.9375 -4.421875 C 5.46875 -4.421875 5.867188 -4.535156 6.140625 -4.765625 C 6.410156 -5.003906 6.546875 -5.335938 6.546875 -5.765625 C 6.546875 -6.191406 6.410156 -6.519531 6.140625 -6.75 C 5.867188 -6.988281 5.46875 -7.109375 4.9375 -7.109375 L 3.5 -7.109375 L 3.5 -4.421875 Z M 4.9375 -4.421875"/></g><g id="o"><path d="M 9.171875 0 L 9.140625 -4.84375 L 6.796875 -0.90625 L 5.640625 -0.90625 L 3.3125 -4.71875 L 3.3125 0 L 0.921875 0 L 0.921875 -9.140625 L 3.046875 -9.140625 L 6.25 -3.859375 L 9.390625 -9.140625 L 11.515625 -9.140625 L 11.546875 0 Z M 9.171875 0"/></g><g id="p"><path d="M 9.609375 -9.140625 L 9.609375 0 L 7.484375 0 L 3.453125 -4.875 L 3.453125 0 L 0.921875 0 L 0.921875 -9.140625 L 3.046875 -9.140625 L 7.078125 -4.265625 L 7.078125 -9.140625 Z M 9.609375 -9.140625"/></g><g id="q"><path d="M 2.859375 -7.09375 L 0.046875 -7.09375 L 0.046875 -9.140625 L 8.25 -9.140625 L 8.25 -7.09375 L 5.453125 -7.09375 L 5.453125 0 L 2.859375 0 Z M 2.859375 -7.09375"/></g><clipPath id="a"><path d="M 11 5 L 40.503906 5 L 40.503906 44.207031 L 11 44.207031 Z M 11 5"/></clipPath><clipPath id="b"><path d="M 1.503906 0.707031 L 30 0.707031 L 30 41 L 1.503906 41 Z M 1.503906 0.707031"/></clipPath></defs><g clip-path="url(#a)"><path fill="#4D6066" d="M 29.921875 5.003906 L 30.746094 5.480469 L 37.648438 9.488281 C 38.527344 10 39.222656 10.699219 39.730469 11.582031 C 40.238281 12.46875 40.492188 13.421875 40.492188 14.441406 L 40.492188 30.472656 C 40.492188 31.496094 40.238281 32.449219 39.730469 33.332031 C 39.222656 34.21875 38.527344 34.914062 37.648438 35.425781 L 23.84375 43.441406 C 22.964844 43.953125 22.015625 44.207031 21 44.207031 C 19.984375 44.207031 19.039062 43.953125 18.15625 43.441406 L 11.59375 39.628906 L 14.257812 37.796875 C 21.804688 41.117188 40.25 30.519531 29.921875 5.003906 Z M 29.921875 5.003906" fill-rule="evenodd"/></g><path fill="#405159" d="M 14.179688 41.125 L 11.601562 39.628906 L 14.265625 37.796875 C 21.511719 40.984375 38.789062 31.34375 31.03125 7.996094 C 39.503906 30.972656 24.398438 40.722656 14.179688 41.125 Z M 14.179688 41.125" fill-rule="evenodd"/><g clip-path="url(#b)"><path fill="#008037" d="M 23.84375 1.472656 L 29.683594 4.867188 C 24.765625 18.542969 -2.207031 17.308594 9.445312 35.296875 C 15.253906 31.871094 20.777344 27.863281 24.257812 19.734375 C 24.066406 27.300781 17.675781 33.644531 10.230469 38.527344 L 10.058594 38.636719 L 10.003906 38.675781 L 9.980469 38.691406 C 8.855469 39.421875 7.710938 40.117188 6.558594 40.777344 L 7.761719 37.402344 L 4.359375 35.425781 C 3.480469 34.914062 2.785156 34.21875 2.277344 33.332031 C 1.769531 32.449219 1.515625 31.496094 1.515625 30.472656 L 1.515625 14.441406 C 1.515625 13.421875 1.769531 12.46875 2.277344 11.582031 C 2.785156 10.699219 3.480469 10 4.359375 9.488281 L 11.261719 5.480469 L 18.160156 1.472656 C 19.039062 0.964844 19.988281 0.707031 21.003906 0.707031 C 22.015625 0.707031 22.964844 0.964844 23.84375 1.472656 Z M 23.84375 1.472656" fill-rule="evenodd"/></g><g fill="#008037"><use x="48.767" y="23.147" xmlns:xlink="http://www.w3.org/1999/xlink" xlink:href="#c" xlink:type="simple" xlink:actuate="onLoad" xlink:show="embed"/></g><g fill="#008037"><use x="69.717" y="23.147" xmlns:xlink="http://www.w3.org/1999/xlink" xlink:href="#d" xlink:type="simple" xlink:actuate="onLoad" xlink:show="embed"/></g><g fill="#008037"><use x="92.196" y="23.147" xmlns:xlink="http://www.w3.org/1999/xlink" xlink:href="#e" xlink:type="simple" xlink:actuate="onLoad" xlink:show="embed"/></g><g fill="#008037"><use x="117.176" y="23.147" xmlns:xlink="http://www.w3.org/1999/xlink" xlink:href="#f" xlink:type="simple" xlink:actuate="onLoad" xlink:show="embed"/></g><g fill="#008037"><use x="137.431" y="23.147" xmlns:xlink="http://www.w3.org/1999/xlink" xlink:href="#g" xlink:type="simple" xlink:actuate="onLoad" xlink:show="embed"/></g><g fill="#008037"><use x="161.021" y="23.147" xmlns:xlink="http://www.w3.org/1999/xlink" xlink:href="#h" xlink:type="simple" xlink:actuate="onLoad" xlink:show="embed"/></g><g fill="#008037"><use x="183.546" y="23.147" xmlns:xlink="http://www.w3.org/1999/xlink" xlink:href="#i" xlink:type="simple" xlink:actuate="onLoad" xlink:show="embed"/></g><g fill="#405159"><use x="54.752" y="39.914" xmlns:xlink="http://www.w3.org/1999/xlink" xlink:href="#j" xlink:type="simple" xlink:actuate="onLoad" xlink:show="embed"/></g><g fill="#405159"><use x="71.118" y="39.914" xmlns:xlink="http://www.w3.org/1999/xlink" xlink:href="#k" xlink:type="simple" xlink:actuate="onLoad" xlink:show="embed"/></g><g fill="#405159"><use x="89.758" y="39.914" xmlns:xlink="http://www.w3.org/1999/xlink" xlink:href="#l" xlink:type="simple" xlink:actuate="onLoad" xlink:show="embed"/></g><g fill="#405159"><use x="107.613" y="39.914" xmlns:xlink="http://www.w3.org/1999/xlink" xlink:href="#m" xlink:type="simple" xlink:actuate="onLoad" xlink:show="embed"/></g><g fill="#405159"><use x="119.627" y="39.914" xmlns:xlink="http://www.w3.org/1999/xlink" xlink:href="#n" xlink:type="simple" xlink:actuate="onLoad" xlink:show="embed"/></g><g fill="#405159"><use x="136.843" y="39.914" xmlns:xlink="http://www.w3.org/1999/xlink" xlink:href="#o" xlink:type="simple" xlink:actuate="onLoad" xlink:show="embed"/></g><g fill="#405159"><use x="156.894" y="39.914" xmlns:xlink="http://www.w3.org/1999/xlink" xlink:href="#j" xlink:type="simple" xlink:actuate="onLoad" xlink:show="embed"/></g><g fill="#405159"><use x="173.26" y="39.914" xmlns:xlink="http://www.w3.org/1999/xlink" xlink:href="#p" xlink:type="simple" xlink:actuate="onLoad" xlink:show="embed"/></g><g fill="#405159"><use x="191.376" y="39.914" xmlns:xlink="http://www.w3.org/1999/xlink" xlink:href="#q" xlink:type="simple" xlink:actuate="onLoad" xlink:show="embed"/></g></svg>